<svg id="Layer_1" data-name="Layer 1" xmlns="http://www.w3.org/2000/svg" viewBox="0 0 344.82 290.35"><defs><style>.cls-1{fill:#1d293b;}.cls-2{fill:#29a3dc;}.cls-3{fill:#fff;}</style></defs><rect class="cls-1" width="344.82" height="290.35"/><path class="cls-2" d="M99.76,157.47,31.24,206.72a9.81,9.81,0,0,1-.76-3.78V109.42a9.64,9.64,0,0,1,.35-2.56Z" transform="translate(40.55 12.45)"/><path class="cls-2" d="M225.43,109.42v93.52a9.46,9.46,0,0,1-.76,3.78l-68.49-49.23,69-50.05a9.46,9.46,0,0,1,.22,2Z" transform="translate(40.55 12.45)"/><path class="cls-2" d="M133.65,149.3l86.57,62.22a9.58,9.58,0,0,1-4.53,1.17H40.23a9.55,9.55,0,0,1-4.53-1.17l86.57-62.22a9.73,9.73,0,0,1,11.38,0Z" transform="translate(40.55 12.45)"/><path class="cls-3" d="M108.63,82.72,111,128.38a3.25,3.25,0,0,0,3.25,3.08h27.46a3.24,3.24,0,0,0,3.24-3.08l2.35-45.66Zm12.83,39a3.25,3.25,0,0,1-6.5,0V92.47a3.25,3.25,0,0,1,6.5,0Zm9.75,0a3.25,3.25,0,0,1-6.5,0V92.47a3.25,3.25,0,0,1,6.5,0Zm3.25-29.24a3.25,3.25,0,1,1,6.49,0v29.24a3.25,3.25,0,1,1-6.49,0" transform="translate(40.55 12.45)"/><path class="cls-3" d="M98.71,74.6A1.64,1.64,0,0,1,100.34,73h55.24a1.63,1.63,0,0,1,0,3.25H100.34A1.63,1.63,0,0,1,98.71,74.6Z" transform="translate(40.55 12.45)"/><path class="cls-3" d="M105.31,153.49,118.48,144a16.25,16.25,0,0,1,19,0l13.18,9.48,45.57-33v-67a9.76,9.76,0,0,0-9.75-9.75h-117a9.77,9.77,0,0,0-9.75,9.75v66.39Zm-5-87h11.37a9.76,9.76,0,0,1,9.75-9.75h13a9.72,9.72,0,0,1,9.74,9.73v0h11.43a8.12,8.12,0,0,1,0,16.24h-1.79l-2.37,46a9.74,9.74,0,0,1-9.73,9.25H114.23a9.76,9.76,0,0,1-9.74-9.25l-2.36-46h-1.79a8.12,8.12,0,0,1,0-16.24Z" transform="translate(40.55 12.45)"/><path class="cls-3" d="M137.53,131.73H136a.26.26,0,0,1,.26-.25h1a.25.25,0,0,1,.25.25Z" transform="translate(40.55 12.45)"/><path class="cls-3" d="M221.82,101.87l-19.13,13.88v-24C203.21,92.06,222.35,101.69,221.82,101.87Z" transform="translate(40.55 12.45)"/></svg>